C:\Users\israe\Dropbox\PhDWork\Simulation\code\PassiveMoments\Data/trialKnee_ankle0hip-20_ankle0hip15_ankle15hip-20.mot
nRows=141
nColumns=4

name C:\Users\israe\Dropbox\PhDWork\Simulation\code\PassiveMoments\Data/trialKnee_ankle0hip-20_ankle0hip15_ankle15hip-20.mot
datacolumns 4
datarows 141
range 0.0000000000 1.4000000000
endheader
time	ankle_angle_r	knee_angle_r	hip_flexion_r
        0.0000000000	       -0.0000000000	       -0.0000000000	      -20.0000000000	
        0.0100000000	       -0.0000000000	       -0.7272727273	      -20.0000000000	
        0.0200000000	       -0.0000000000	       -1.4545454545	      -20.0000000000	
        0.0300000000	       -0.0000000000	       -2.1818181818	      -20.0000000000	
        0.0400000000	       -0.0000000000	       -2.9090909091	      -20.0000000000	
        0.0500000000	       -0.0000000000	       -3.6363636364	      -20.0000000000	
        0.0600000000	       -0.0000000000	       -4.3636363636	      -20.0000000000	
        0.0700000000	       -0.0000000000	       -5.0909090909	      -20.0000000000	
        0.0800000000	       -0.0000000000	       -5.8181818182	      -20.0000000000	
        0.0900000000	       -0.0000000000	       -6.5454545455	      -20.0000000000	
        0.1000000000	       -0.0000000000	       -7.2727272727	      -20.0000000000	
        0.1100000000	       -0.0000000000	       -8.0000000000	      -20.0000000000	
        0.1200000000	       -0.0000000000	       -8.7272727273	      -20.0000000000	
        0.1300000000	       -0.0000000000	       -9.4545454545	      -20.0000000000	
        0.1400000000	       -0.0000000000	      -10.1818181818	      -20.0000000000	
        0.1500000000	       -0.0000000000	      -10.9090909091	      -20.0000000000	
        0.1600000000	       -0.0000000000	      -11.6363636364	      -20.0000000000	
        0.1700000000	       -0.0000000000	      -12.3636363636	      -20.0000000000	
        0.1800000000	       -0.0000000000	      -13.0909090909	      -20.0000000000	
        0.1900000000	       -0.0000000000	      -13.8181818182	      -20.0000000000	
        0.2000000000	       -0.0000000000	      -14.5454545455	      -20.0000000000	
        0.2100000000	       -0.0000000000	      -15.2727272727	      -20.0000000000	
        0.2200000000	       -0.0000000000	      -16.0000000000	      -20.0000000000	
        0.2300000000	       -0.0000000000	      -16.7272727273	      -20.0000000000	
        0.2400000000	       -0.0000000000	      -17.4545454545	      -20.0000000000	
        0.2500000000	       -0.0000000000	      -18.1818181818	      -20.0000000000	
        0.2600000000	       -0.0000000000	      -18.9090909091	      -20.0000000000	
        0.2700000000	       -0.0000000000	      -19.6363636364	      -20.0000000000	
        0.2800000000	       -0.0000000000	      -20.3636363636	      -20.0000000000	
        0.2900000000	       -0.0000000000	      -21.0909090909	      -20.0000000000	
        0.3000000000	       -0.0000000000	      -21.8181818182	      -20.0000000000	
        0.3100000000	       -0.0000000000	      -22.5454545455	      -20.0000000000	
        0.3200000000	       -0.0000000000	      -23.2727272727	      -20.0000000000	
        0.3300000000	       -0.0000000000	      -24.0000000000	      -20.0000000000	
        0.3400000000	       -0.0000000000	      -24.7272727273	      -20.0000000000	
        0.3500000000	       -0.0000000000	      -25.4545454545	      -20.0000000000	
        0.3600000000	       -0.0000000000	      -26.1818181818	      -20.0000000000	
        0.3700000000	       -0.0000000000	      -26.9090909091	      -20.0000000000	
        0.3800000000	       -0.0000000000	      -27.6363636364	      -20.0000000000	
        0.3900000000	       -0.0000000000	      -28.3636363636	      -20.0000000000	
        0.4000000000	       -0.0000000000	      -29.0909090909	      -20.0000000000	
        0.4100000000	       -0.0000000000	      -29.8181818182	      -20.0000000000	
        0.4200000000	       -0.0000000000	      -30.5454545455	      -20.0000000000	
        0.4300000000	       -0.0000000000	      -31.2727272727	      -20.0000000000	
        0.4400000000	       -0.0000000000	      -32.0000000000	      -20.0000000000	
        0.4500000000	       -0.0000000000	      -32.7272727273	      -20.0000000000	
        0.4600000000	       -0.0000000000	      -33.4545454545	      -20.0000000000	
        0.4700000000	       -0.0000000000	      -34.1818181818	      -20.0000000000	
        0.4800000000	       -0.0000000000	      -34.9090909091	      -20.0000000000	
        0.4900000000	       -0.0000000000	      -35.6363636364	      -20.0000000000	
        0.5000000000	       -0.0000000000	      -36.3636363636	      -20.0000000000	
        0.5100000000	       -0.0000000000	      -37.0909090909	      -20.0000000000	
        0.5200000000	       -0.0000000000	      -37.8181818182	      -20.0000000000	
        0.5300000000	       -0.0000000000	      -38.5454545455	      -20.0000000000	
        0.5400000000	       -0.0000000000	      -39.2727272727	      -20.0000000000	
        0.5500000000	       -0.0000000000	      -40.0000000000	      -20.0000000000	
        0.5600000000	       -0.0000000000	      -40.7272727273	      -20.0000000000	
        0.5700000000	       -0.0000000000	      -41.4545454545	      -20.0000000000	
        0.5800000000	       -0.0000000000	      -42.1818181818	      -20.0000000000	
        0.5900000000	       -0.0000000000	      -42.9090909091	      -20.0000000000	
        0.6000000000	       -0.0000000000	      -43.6363636364	      -20.0000000000	
        0.6100000000	       -0.0000000000	      -44.3636363636	      -20.0000000000	
        0.6200000000	       -0.0000000000	      -45.0909090909	      -20.0000000000	
        0.6300000000	       -0.0000000000	      -45.8181818182	      -20.0000000000	
        0.6400000000	       -0.0000000000	      -46.5454545455	      -20.0000000000	
        0.6500000000	       -0.0000000000	      -47.2727272727	      -20.0000000000	
        0.6600000000	       -0.0000000000	      -48.0000000000	      -20.0000000000	
        0.6700000000	       -0.0000000000	      -48.7272727273	      -20.0000000000	
        0.6800000000	       -0.0000000000	      -49.4545454545	      -20.0000000000	
        0.6900000000	       -0.0000000000	      -50.1818181818	      -20.0000000000	
        0.7000000000	       -0.0000000000	      -50.9090909091	      -20.0000000000	
        0.7100000000	       -0.0000000000	      -51.6363636364	      -20.0000000000	
        0.7200000000	       -0.0000000000	      -52.3636363636	      -20.0000000000	
        0.7300000000	       -0.0000000000	      -53.0909090909	      -20.0000000000	
        0.7400000000	       -0.0000000000	      -53.8181818182	      -20.0000000000	
        0.7500000000	       -0.0000000000	      -54.5454545455	      -20.0000000000	
        0.7600000000	       -0.0000000000	      -55.2727272727	      -20.0000000000	
        0.7700000000	       -0.0000000000	      -56.0000000000	      -20.0000000000	
        0.7800000000	       -0.0000000000	      -56.7272727273	      -20.0000000000	
        0.7900000000	       -0.0000000000	      -57.4545454545	      -20.0000000000	
        0.8000000000	       -0.0000000000	      -58.1818181818	      -20.0000000000	
        0.8100000000	       -0.0000000000	      -58.9090909091	      -20.0000000000	
        0.8200000000	       -0.0000000000	      -59.6363636364	      -20.0000000000	
        0.8300000000	       -0.0000000000	      -60.3636363636	      -20.0000000000	
        0.8400000000	       -0.0000000000	      -61.0909090909	      -20.0000000000	
        0.8500000000	       -0.0000000000	      -61.8181818182	      -20.0000000000	
        0.8600000000	       -0.0000000000	      -62.5454545455	      -20.0000000000	
        0.8700000000	       -0.0000000000	      -63.2727272727	      -20.0000000000	
        0.8800000000	       -0.0000000000	      -64.0000000000	      -20.0000000000	
        0.8900000000	       -0.0000000000	      -64.7272727273	      -20.0000000000	
        0.9000000000	       -0.0000000000	      -65.4545454545	      -20.0000000000	
        0.9100000000	       -0.0000000000	      -66.1818181818	      -20.0000000000	
        0.9200000000	       -0.0000000000	      -66.9090909091	      -20.0000000000	
        0.9300000000	       -0.0000000000	      -67.6363636364	      -20.0000000000	
        0.9400000000	       -0.0000000000	      -68.3636363636	      -20.0000000000	
        0.9500000000	       -0.0000000000	      -69.0909090909	      -20.0000000000	
        0.9600000000	       -0.0000000000	      -69.8181818182	      -20.0000000000	
        0.9700000000	       -0.0000000000	      -70.5454545455	      -20.0000000000	
        0.9800000000	       -0.0000000000	      -71.2727272727	      -20.0000000000	
        0.9900000000	       -0.0000000000	      -72.0000000000	      -20.0000000000	
        1.0000000000	       -0.0000000000	       -3.0000000000	       15.0000000000	
        1.0100000000	       -0.0000000000	       -3.7272727273	       15.0000000000	
        1.0200000000	       -0.0000000000	       -4.4545454545	       15.0000000000	
        1.0300000000	       -0.0000000000	       -5.1818181818	       15.0000000000	
        1.0400000000	       -0.0000000000	       -5.9090909091	       15.0000000000	
        1.0500000000	       -0.0000000000	       -6.6363636364	       15.0000000000	
        1.0600000000	       -0.0000000000	       -7.3636363636	       15.0000000000	
        1.0700000000	       -0.0000000000	       -8.0909090909	       15.0000000000	
        1.0800000000	       -0.0000000000	       -8.8181818182	       15.0000000000	
        1.0900000000	       -0.0000000000	       -9.5454545455	       15.0000000000	
        1.1000000000	       -0.0000000000	      -10.2727272727	       15.0000000000	
        1.1100000000	       -0.0000000000	      -11.0000000000	       15.0000000000	
        1.1200000000	       -0.0000000000	      -11.7272727273	       15.0000000000	
        1.1300000000	       -0.0000000000	      -12.4545454545	       15.0000000000	
        1.1400000000	       -0.0000000000	      -13.1818181818	       15.0000000000	
        1.1500000000	       -0.0000000000	      -13.9090909091	       15.0000000000	
        1.1600000000	       -0.0000000000	      -14.6363636364	       15.0000000000	
        1.1700000000	       -0.0000000000	      -15.3636363636	       15.0000000000	
        1.1800000000	       -0.0000000000	      -16.0909090909	       15.0000000000	
        1.1900000000	       -0.0000000000	      -16.8181818182	       15.0000000000	
        1.2000000000	       -0.0000000000	      -17.5454545455	       15.0000000000	
        1.2100000000	       -0.0000000000	      -18.2727272727	       15.0000000000	
        1.2200000000	       -0.0000000000	      -19.0000000000	       15.0000000000	
        1.2300000000	       -0.0000000000	      -19.7272727273	       15.0000000000	
        1.2400000000	       -0.0000000000	      -20.4545454545	       15.0000000000	
        1.2500000000	       -0.0000000000	      -21.1818181818	       15.0000000000	
        1.2600000000	       -0.0000000000	      -21.9090909091	       15.0000000000	
        1.2700000000	       -0.0000000000	      -22.6363636364	       15.0000000000	
        1.2800000000	       -0.0000000000	      -23.3636363636	       15.0000000000	
        1.2900000000	       -0.0000000000	      -24.0909090909	       15.0000000000	
        1.3000000000	       -0.0000000000	      -24.8181818182	       15.0000000000	
        1.3100000000	       -0.0000000000	      -25.5454545455	       15.0000000000	
        1.3200000000	       -0.0000000000	      -26.2727272727	       15.0000000000	
        1.3300000000	       -0.0000000000	      -27.0000000000	       15.0000000000	
        1.3400000000	       -0.0000000000	      -27.7272727273	       15.0000000000	
        1.3500000000	       -0.0000000000	      -28.4545454545	       15.0000000000	
        1.3600000000	       -0.0000000000	      -29.1818181818	       15.0000000000	
        1.3700000000	       -0.0000000000	      -29.9090909091	       15.0000000000	
        1.3800000000	       -0.0000000000	      -30.6363636364	       15.0000000000	
        1.3900000000	       -0.0000000000	      -31.3636363636	       15.0000000000	
        1.4000000000	       -0.0000000000	      -32.0909090909	       15.0000000000	
